<svg width="768" height="200" viewBox="0 0 768 200" fill="none" xmlns="http://www.w3.org/2000/svg">
<rect width="768" height="200" fill="#F67E7E"/>
<mask id="mask0_0_2239" style="mask-type:luminance" maskUnits="userSpaceOnUse" x="0" y="0" width="768" height="200">
<rect width="768" height="200" fill="white"/>
</mask>
<g mask="url(#mask0_0_2239)">
<rect x="100" y="222" width="100" height="100" transform="rotate(180 100 222)" fill="#2C6269"/>
<path fill-rule="evenodd" clip-rule="evenodd" d="M100 322C155.228 322 200 277.228 200 222C200 166.772 155.228 122 100 122C44.7715 122 0 166.772 0 222C0 277.228 44.7715 322 100 322ZM100 255C118.225 255 133 240.225 133 222C133 203.775 118.225 189 100 189C81.7746 189 67 203.775 67 222C67 240.225 81.7746 255 100 255Z" fill="#004047"/>
<path fill-rule="evenodd" clip-rule="evenodd" d="M100 178H0V182H100V178ZM100 186H0V190H100V186ZM0 194H100V198H0V194ZM100 202H0V206H100V202ZM0 210H100V214H0V210ZM100 218H0V222H100V218Z" fill="#F67E7E"/>
<path fill-rule="evenodd" clip-rule="evenodd" d="M0 78H4V82H0V78ZM11 78H7V82H11V78ZM11 86H7V90H11V86ZM7 94H11V98H7V94ZM11 102H7V106H11V102ZM7 110H11V114H7V110ZM11 118H7V122H11V118ZM14 78H18V82H14V78ZM14 86H18V90H14V86ZM18 94H14V98H18V94ZM14 102H18V106H14V102ZM18 110H14V114H18V110ZM14 118H18V122H14V118ZM0 86H4V90H0V86ZM21 78H25V82H21V78ZM21 86H25V90H21V86ZM25 94H21V98H25V94ZM21 102H25V106H21V102ZM25 110H21V114H25V110ZM21 118H25V122H21V118ZM0 94H4V98H0V94ZM28 78H32V82H28V78ZM28 86H32V90H28V86ZM32 94H28V98H32V94ZM28 102H32V106H28V102ZM32 110H28V114H32V110ZM28 118H32V122H28V118ZM0 102H4V106H0V102ZM35 78H39V82H35V78ZM35 86H39V90H35V86ZM39 94H35V98H39V94ZM35 102H39V106H35V102ZM39 110H35V114H39V110ZM35 118H39V122H35V118ZM0 110H4V114H0V110ZM42 78H46V82H42V78ZM42 86H46V90H42V86ZM46 94H42V98H46V94ZM42 102H46V106H42V102ZM46 110H42V114H46V110ZM42 118H46V122H42V118ZM0 118H4V122H0V118ZM49 78H53V82H49V78ZM49 86H53V90H49V86ZM53 94H49V98H53V94ZM49 102H53V106H49V102ZM53 110H49V114H53V110ZM49 118H53V122H49V118Z" fill="#79C8C7"/>
</g>
</svg>
