<svg width="768" height="308" viewBox="0 0 768 308" fill="none" xmlns="http://www.w3.org/2000/svg">
<g clip-path="url(#clip0_0_1717)">
<rect width="768" height="308" fill="#012F34"/>
<mask id="mask0_0_1717" style="mask-type:luminance" maskUnits="userSpaceOnUse" x="0" y="0" width="768" height="308">
<rect width="768" height="308" fill="white"/>
</mask>
<g mask="url(#mask0_0_1717)">
<path fill-rule="evenodd" clip-rule="evenodd" d="M100 100C155.228 100 200 55.2285 200 0C200 -55.2285 155.228 -100 100 -100C44.7715 -100 0 -55.2285 0 0C0 55.2285 44.7715 100 100 100ZM100 33C118.225 33 133 18.2254 133 0C133 -18.2254 118.225 -33 100 -33C81.7746 -33 67 -18.2254 67 0C67 18.2254 81.7746 33 100 33Z" fill="#014E56"/>
<path fill-rule="evenodd" clip-rule="evenodd" d="M100 0H0V4H100V0ZM100 8H0V12H100V8ZM0 16H100V20H0V16ZM100 24H0V28H100V24ZM0 32H100V36H0V32ZM100 40H0V44H100V40Z" fill="#79C8C7"/>
</g>
</g>
<defs>
<clipPath id="clip0_0_1717">
<rect width="768" height="308" fill="white"/>
</clipPath>
</defs>
</svg>
