<?xml version="1.0" standalone="no"?>
<!DOCTYPE svg PUBLIC "-//W3C//DTD SVG 20010904//EN"
 "http://www.w3.org/TR/2001/REC-SVG-20010904/DTD/svg10.dtd">
<svg version="1.0" xmlns="http://www.w3.org/2000/svg"
 width="488.000000pt" height="488.000000pt" viewBox="0 0 488.000000 488.000000"
 preserveAspectRatio="xMidYMid meet">
<metadata>
Created by potrace 1.14, written by Peter Selinger 2001-2017
</metadata>
<g transform="translate(0.000000,488.000000) scale(0.100000,-0.100000)"
fill="#000000" stroke="none">
<path d="M440 4840 l0 -40 40 0 40 0 0 40 0 40 -40 0 -40 0 0 -40z"/>
<path d="M580 4840 l0 -40 40 0 40 0 0 40 0 40 -40 0 -40 0 0 -40z"/>
<path d="M720 4840 l0 -40 40 0 40 0 0 40 0 40 -40 0 -40 0 0 -40z"/>
<path d="M860 4840 l0 -40 40 0 40 0 0 40 0 40 -40 0 -40 0 0 -40z"/>
<path d="M1000 4840 l0 -40 40 0 40 0 0 40 0 40 -40 0 -40 0 0 -40z"/>
<path d="M1140 4840 l0 -40 40 0 40 0 0 40 0 40 -40 0 -40 0 0 -40z"/>
<path d="M1280 4840 l0 -40 40 0 40 0 0 40 0 40 -40 0 -40 0 0 -40z"/>
<path d="M1420 4840 l0 -40 40 0 40 0 0 40 0 40 -40 0 -40 0 0 -40z"/>
<path d="M440 4680 l0 -40 40 0 40 0 0 40 0 40 -40 0 -40 0 0 -40z"/>
<path d="M580 4680 l0 -40 40 0 40 0 0 40 0 40 -40 0 -40 0 0 -40z"/>
<path d="M720 4680 l0 -40 40 0 40 0 0 40 0 40 -40 0 -40 0 0 -40z"/>
<path d="M860 4680 l0 -40 40 0 40 0 0 40 0 40 -40 0 -40 0 0 -40z"/>
<path d="M1000 4680 l0 -40 40 0 40 0 0 40 0 40 -40 0 -40 0 0 -40z"/>
<path d="M1140 4680 l0 -40 40 0 40 0 0 40 0 40 -40 0 -40 0 0 -40z"/>
<path d="M1280 4680 l0 -40 40 0 40 0 0 40 0 40 -40 0 -40 0 0 -40z"/>
<path d="M1420 4680 l0 -40 40 0 40 0 0 40 0 40 -40 0 -40 0 0 -40z"/>
<path d="M440 4520 l0 -40 40 0 40 0 0 40 0 40 -40 0 -40 0 0 -40z"/>
<path d="M580 4520 l0 -40 40 0 40 0 0 40 0 40 -40 0 -40 0 0 -40z"/>
<path d="M720 4520 l0 -40 40 0 40 0 0 40 0 40 -40 0 -40 0 0 -40z"/>
<path d="M860 4520 l0 -40 40 0 40 0 0 40 0 40 -40 0 -40 0 0 -40z"/>
<path d="M1000 4520 l0 -40 40 0 40 0 0 40 0 40 -40 0 -40 0 0 -40z"/>
<path d="M1140 4520 l0 -40 40 0 40 0 0 40 0 40 -40 0 -40 0 0 -40z"/>
<path d="M1280 4520 l0 -40 40 0 40 0 0 40 0 40 -40 0 -40 0 0 -40z"/>
<path d="M1420 4520 l0 -40 40 0 40 0 0 40 0 40 -40 0 -40 0 0 -40z"/>
<path d="M440 4360 l0 -40 40 0 40 0 0 40 0 40 -40 0 -40 0 0 -40z"/>
<path d="M580 4360 l0 -40 40 0 40 0 0 40 0 40 -40 0 -40 0 0 -40z"/>
<path d="M720 4360 l0 -40 40 0 40 0 0 40 0 40 -40 0 -40 0 0 -40z"/>
<path d="M860 4360 l0 -40 40 0 40 0 0 40 0 40 -40 0 -40 0 0 -40z"/>
<path d="M1000 4360 l0 -40 40 0 40 0 0 40 0 40 -40 0 -40 0 0 -40z"/>
<path d="M1140 4360 l0 -40 40 0 40 0 0 40 0 40 -40 0 -40 0 0 -40z"/>
<path d="M1280 4360 l0 -40 40 0 40 0 0 40 0 40 -40 0 -40 0 0 -40z"/>
<path d="M1420 4360 l0 -40 40 0 40 0 0 40 0 40 -40 0 -40 0 0 -40z"/>
<path d="M440 4200 l0 -40 40 0 40 0 0 40 0 40 -40 0 -40 0 0 -40z"/>
<path d="M580 4200 l0 -40 40 0 40 0 0 40 0 40 -40 0 -40 0 0 -40z"/>
<path d="M720 4200 l0 -40 40 0 40 0 0 40 0 40 -40 0 -40 0 0 -40z"/>
<path d="M860 4200 l0 -40 40 0 40 0 0 40 0 40 -40 0 -40 0 0 -40z"/>
<path d="M1000 4200 l0 -40 40 0 40 0 0 40 0 40 -40 0 -40 0 0 -40z"/>
<path d="M1140 4200 l0 -40 40 0 40 0 0 40 0 40 -40 0 -40 0 0 -40z"/>
<path d="M1280 4200 l0 -40 40 0 40 0 0 40 0 40 -40 0 -40 0 0 -40z"/>
<path d="M1420 4200 l0 -40 40 0 40 0 0 40 0 40 -40 0 -40 0 0 -40z"/>
<path d="M440 2920 c1 -851 4 -1160 12 -1160 6 0 9 -2 6 -6 -3 -3 -2 -21 2
-40 6 -26 5 -34 -6 -34 -10 0 -14 -12 -14 -40 0 -33 3 -40 20 -40 13 0 22 -9
26 -27 3 -16 7 -34 10 -40 2 -9 -7 -13 -26 -13 -28 0 -30 -2 -30 -40 0 -40 0
-40 39 -40 35 0 40 -3 50 -31 16 -47 15 -49 -39 -49 l-50 0 0 -40 0 -40 65 0
c61 0 65 -1 80 -30 24 -47 21 -50 -65 -50 l-80 0 0 -40 0 -40 104 0 c99 0 105
-1 112 -22 18 -56 170 -289 252 -384 183 -213 384 -372 629 -497 91 -46 268
-119 323 -133 8 -2 51 -13 95 -24 92 -23 172 -38 265 -48 82 -9 354 -9 440 0
69 8 185 27 250 43 14 3 35 8 47 11 34 7 225 74 255 90 16 8 28 13 28 10 0 -8
245 126 310 170 295 198 537 477 692 797 21 43 38 79 38 81 0 2 8 21 17 42 9
22 18 44 19 49 2 6 19 60 38 120 19 61 37 128 40 149 4 21 8 48 11 60 23 102
30 194 30 386 -1 228 -31 417 -100 620 -31 93 -28 87 -105 245 -83 171 -173
306 -300 449 -64 72 -175 177 -240 226 -25 19 -47 38 -50 41 -22 25 -328 209
-349 209 -3 0 -19 7 -35 15 -92 48 -339 124 -471 145 -177 28 -194 29 -772 29
l-513 1 0 40 0 40 -40 0 -40 0 0 -40 c0 -38 -2 -40 -30 -40 -28 0 -30 2 -30
40 l0 40 -40 0 -40 0 0 -40 c0 -38 -2 -40 -30 -40 -28 0 -30 2 -30 40 l0 40
-40 0 -40 0 0 -40 c0 -38 -2 -40 -30 -40 -28 0 -30 2 -30 40 l0 40 -40 0 -40
0 0 -40 c0 -38 -2 -40 -30 -40 -28 0 -30 2 -30 40 l0 40 -40 0 -40 0 0 -40 c0
-38 -2 -40 -30 -40 -28 0 -30 2 -30 40 l0 40 -40 0 -40 0 0 -40 c0 -38 -2 -40
-30 -40 -28 0 -30 2 -30 40 l0 40 -40 0 -40 0 0 -40 c0 -38 -2 -40 -30 -40
-28 0 -30 2 -30 40 l0 40 -40 0 -40 0 0 -1160z m2180 -286 c64 -19 159 -62
178 -81 7 -7 17 -13 22 -13 15 0 136 -124 166 -170 84 -130 109 -219 109 -390
-1 -277 -188 -525 -461 -609 -81 -26 -194 -38 -194 -22 0 7 -30 11 -85 11 -84
0 -156 19 -240 64 -28 15 -21 16 148 16 l177 0 0 40 0 40 -226 0 -226 0 -37
38 -36 37 263 3 262 2 0 40 0 40 -287 0 -288 0 -17 31 c-10 17 -18 35 -18 40
0 5 126 9 305 9 l305 0 0 40 0 40 -320 0 -320 0 -6 28 c-3 15 -7 33 -10 40 -3
9 67 12 326 12 l330 0 0 371 0 371 63 -6 c34 -3 87 -13 117 -22z"/>
</g>
</svg>
